<?xml version="1.0" encoding="utf-8"?>
<svg xmlns="http://www.w3.org/2000/svg" viewBox="0 0 110 30" height="30px">
  <g transform="matrix(2.646669864654541, 0, 0, 2.646669864654541, -160.93870544433594, -92.92195129394531)" style="">
    <path
      d="M 72.154 40.771 C 71.015 41.339 69.946 42.038 68.97 42.853 L 66.894 40.777 L 69.17 38.5 C 70.115 39.322 71.111 40.08 72.154 40.771 Z"
      style="stroke: rgb(0, 0, 0); stroke-width: 0px; fill: rgb(199, 220, 255);" />
    <path
      d="M 66.481 46.444 C 65.914 45.309 65.217 44.242 64.404 43.266 L 66.482 41.189 L 68.558 43.266 C 67.745 44.242 67.049 45.309 66.481 46.444 Z"
      style="stroke: rgb(0, 0, 0); stroke-width: 0; fill: rgb(6, 50, 122);" />
    <path
      d="M 60.808 40.771 C 61.851 40.08 62.847 39.322 63.792 38.5 L 66.069 40.777 L 63.992 42.853 C 63.016 42.038 61.947 41.339 60.808 40.771 Z"
      style="stroke: rgb(0, 0, 0); stroke-width: 0; fill: rgb(36, 104, 213);" />
    <path
      d="M 64.228 38.11 C 65.075 37.187 65.83 36.181 66.481 35.109 C 67.132 36.182 67.886 37.187 68.735 38.11 L 66.481 40.364 L 64.228 38.11 Z"
      style="stroke: rgb(0, 0, 0); stroke-width: 0; fill: rgb(133, 172, 234);" />
  </g>
  <path
    d="M 94.383 19.615 L 98.234 18.668 C 98.458 19.972 98.971 20.95 99.777 21.602 C 100.581 22.254 101.575 22.58 102.757 22.58 C 103.388 22.58 103.953 22.473 104.453 22.259 C 104.952 22.045 105.349 21.73 105.645 21.312 C 105.94 20.895 106.089 20.4 106.089 19.829 C 106.089 19.3 105.936 18.842 105.63 18.454 C 105.325 18.068 104.86 17.711 104.239 17.385 C 103.617 17.059 102.837 16.723 101.901 16.376 C 100.556 15.847 99.43 15.281 98.524 14.68 C 97.617 14.079 96.939 13.38 96.491 12.586 C 96.043 11.791 95.819 10.855 95.819 9.774 C 95.819 8.634 96.099 7.626 96.66 6.748 C 97.22 5.873 98.004 5.18 99.013 4.67 C 100.021 4.162 101.198 3.906 102.543 3.906 C 103.968 3.906 105.237 4.238 106.348 4.9 C 107.458 5.562 108.35 6.545 109.022 7.849 L 105.875 9.774 C 105.447 9.001 104.942 8.414 104.361 8.017 C 103.781 7.62 103.133 7.42 102.42 7.42 C 101.911 7.42 101.458 7.518 101.06 7.711 C 100.663 7.905 100.346 8.17 100.113 8.506 C 99.878 8.842 99.762 9.235 99.762 9.683 C 99.762 10.152 99.899 10.569 100.174 10.936 C 100.449 11.302 100.896 11.653 101.519 11.99 C 102.141 12.327 102.95 12.678 103.948 13.044 C 105.272 13.533 106.378 14.073 107.265 14.664 C 108.151 15.256 108.828 15.943 109.297 16.727 C 109.765 17.512 110 18.465 110 19.585 C 110 20.849 109.689 21.974 109.067 22.962 C 108.445 23.951 107.586 24.72 106.486 25.27 C 105.386 25.82 104.09 26.095 102.604 26.095 C 100.342 26.095 98.482 25.504 97.026 24.322 C 95.569 23.141 94.688 21.571 94.383 19.615 Z M 43.252 25.698 L 39.309 25.698 L 39.309 4.395 L 53.551 4.395 L 53.551 7.941 L 43.252 7.941 L 43.252 13.014 L 52.207 13.014 L 52.207 16.529 L 43.252 16.529 L 43.252 25.698 Z M 64.828 25.698 L 56.363 25.698 L 56.363 4.395 L 63.851 4.395 C 65.969 4.395 67.63 4.869 68.833 5.817 C 70.034 6.764 70.636 8.084 70.636 9.774 C 70.636 10.752 70.431 11.624 70.024 12.388 C 69.616 13.152 69.047 13.747 68.313 14.175 C 69.494 14.623 70.37 15.291 70.941 16.177 C 71.511 17.063 71.797 18.159 71.797 19.463 C 71.797 21.418 71.181 22.946 69.947 24.047 C 68.714 25.147 67.009 25.698 64.828 25.698 Z M 81.21 25.698 L 75.037 25.698 L 75.037 4.395 L 81.24 4.395 C 84.786 4.395 87.526 5.333 89.463 7.208 C 91.398 9.082 92.366 11.751 92.366 15.214 C 92.366 18.597 91.408 21.19 89.492 22.993 C 87.577 24.796 84.817 25.698 81.21 25.698 Z M 78.979 8.033 L 78.979 22.06 L 80.813 22.06 C 82.421 22.06 83.788 21.857 84.908 21.449 C 86.028 21.042 86.89 20.329 87.491 19.31 C 88.091 18.291 88.392 16.876 88.392 15.061 C 88.392 13.309 88.102 11.92 87.522 10.889 C 86.941 9.861 86.116 9.128 85.045 8.689 C 83.976 8.251 82.687 8.033 81.179 8.033 L 78.979 8.033 Z M 60.306 16.468 L 60.306 22.06 L 64.523 22.06 C 66.744 22.06 67.855 21.133 67.855 19.279 C 67.855 18.383 67.584 17.69 67.044 17.201 C 66.504 16.712 65.734 16.468 64.737 16.468 L 60.306 16.468 Z M 60.306 8.033 L 60.306 12.953 L 64.034 12.953 C 64.848 12.953 65.496 12.724 65.975 12.266 C 66.453 11.807 66.692 11.18 66.692 10.386 C 66.692 9.633 66.449 9.052 65.959 8.644 C 65.47 8.237 64.767 8.033 63.851 8.033 L 60.306 8.033 Z"
    vector-effect="non-scaling-stroke" style="fill: #FFFFFF;" />
</svg>