<svg xmlns="http://www.w3.org/2000/svg" viewBox="267.9614 106.4138 511.9996 102.4006" width="512px" height="102.401px">
  <mask id="b" fill="#fff">
    <path
      d="M 271.137 200.772 L 267.965 116.249 C 267.86 113.458 270 111.092 272.788 110.918 L 344.681 106.424 C 347.646 106.238 350.152 108.593 350.151 111.563 L 350.151 203.666 C 350.151 206.6 347.702 208.941 344.771 208.809 L 276.051 205.722 C 273.374 205.602 271.237 203.449 271.137 200.772 Z"
      style="stroke-width: 1;" />
  </mask>
  <path
    d="M 404.358 187.471 C 399.988 187.471 395.784 186.884 391.742 185.71 C 387.701 184.536 384.342 182.911 381.666 180.836 L 385.762 171.743 C 391.332 175.62 397.586 177.559 404.522 177.559 C 408.126 177.559 410.898 176.972 412.837 175.798 C 414.775 174.623 415.745 172.998 415.745 170.923 C 415.745 169.067 414.857 167.619 413.082 166.582 C 411.307 165.544 408.153 164.534 403.621 163.551 C 398.541 162.513 394.486 161.257 391.455 159.782 C 388.425 158.308 386.213 156.492 384.82 154.335 C 383.427 152.177 382.73 149.515 382.73 146.347 C 382.73 142.852 383.7 139.739 385.64 137.009 C 387.578 134.278 390.295 132.134 393.79 130.578 C 397.285 129.021 401.327 128.243 405.914 128.243 C 410.01 128.243 413.956 128.843 417.752 130.045 C 421.547 131.247 424.565 132.858 426.804 134.879 L 422.708 143.972 C 417.41 140.094 411.84 138.155 405.996 138.155 C 402.665 138.155 400.043 138.797 398.132 140.081 C 396.22 141.364 395.265 143.125 395.265 145.364 C 395.265 146.675 395.633 147.754 396.371 148.6 C 397.108 149.447 398.337 150.198 400.057 150.853 C 401.777 151.508 404.221 152.191 407.389 152.901 C 414.816 154.539 420.155 156.642 423.404 159.209 C 426.654 161.776 428.278 165.326 428.278 169.859 C 428.278 175.319 426.176 179.621 421.971 182.761 C 417.765 185.901 411.894 187.471 404.358 187.471 L 404.358 187.471 Z M 457.933 178.296 C 459.248 178.293 460.562 178.211 461.866 178.05 L 461.21 187.062 C 459.636 187.28 458.049 187.389 456.459 187.389 C 450.342 187.389 445.878 186.051 443.065 183.375 C 440.252 180.699 438.846 176.631 438.846 171.169 L 438.846 155.769 L 431.228 155.769 L 431.228 146.511 L 438.846 146.511 L 438.846 134.715 L 451.216 134.715 L 451.216 146.511 L 461.292 146.511 L 461.292 155.768 L 451.216 155.768 L 451.216 171.088 C 451.216 175.893 453.456 178.296 457.933 178.296 L 457.933 178.296 Z M 486.687 187.389 C 482.427 187.389 478.687 186.529 475.464 184.809 C 472.242 183.089 469.757 180.659 468.01 177.518 C 466.262 174.378 465.388 170.678 465.388 166.418 C 465.388 162.158 466.262 158.458 468.01 155.318 C 469.757 152.178 472.242 149.761 475.464 148.068 C 478.687 146.375 482.428 145.528 486.687 145.528 C 490.947 145.528 494.688 146.375 497.91 148.068 C 501.133 149.761 503.618 152.178 505.365 155.318 C 507.113 158.458 507.987 162.158 507.987 166.418 C 507.987 170.678 507.113 174.378 505.365 177.518 C 503.618 180.658 501.133 183.088 497.91 184.808 C 494.688 186.529 490.947 187.389 486.687 187.389 L 486.687 187.389 Z M 486.687 177.969 C 492.695 177.969 495.699 174.119 495.699 166.418 C 495.699 162.54 494.92 159.646 493.364 157.734 C 491.807 155.823 489.582 154.867 486.687 154.867 C 480.68 154.867 477.677 158.717 477.677 166.417 C 477.677 174.118 480.68 177.969 486.687 177.969 Z M 542.229 155.686 L 535.266 156.424 C 531.826 156.751 529.395 157.721 527.976 159.332 C 526.556 160.942 525.846 163.086 525.846 165.762 L 525.846 186.734 L 513.476 186.734 L 513.476 146.511 L 525.354 146.511 L 525.354 153.311 C 527.374 148.668 531.552 146.129 537.887 145.692 L 541.492 145.446 L 542.229 155.686 Z M 578.172 146.593 L 590.296 146.593 L 566.047 201.48 L 553.514 201.48 L 561.214 184.522 L 544.666 146.593 L 557.528 146.593 L 567.686 172.153 L 578.172 146.593 Z M 618.968 145.528 C 622.463 145.528 625.548 146.375 628.225 148.068 C 630.901 149.761 632.99 152.178 634.492 155.318 C 635.993 158.458 636.744 162.103 636.744 166.254 C 636.744 170.404 635.994 174.077 634.492 177.272 C 632.99 180.467 630.887 182.952 628.184 184.727 C 625.48 186.502 622.408 187.389 618.968 187.389 C 616.182 187.389 613.67 186.802 611.431 185.629 C 609.191 184.454 607.471 182.829 606.271 180.754 L 606.271 186.734 L 594.064 186.734 L 594.064 128.98 L 606.434 128.98 L 606.434 151.918 C 607.635 149.898 609.342 148.328 611.554 147.208 C 613.766 146.088 616.237 145.528 618.968 145.528 L 618.968 145.528 Z M 615.363 177.968 C 618.258 177.968 620.497 176.945 622.081 174.897 C 623.664 172.849 624.456 169.967 624.456 166.254 C 624.456 162.594 623.664 159.796 622.081 157.857 C 620.497 155.918 618.258 154.949 615.363 154.949 C 612.469 154.949 610.23 155.946 608.646 157.939 C 607.062 159.933 606.27 162.759 606.27 166.418 C 606.27 170.132 607.062 172.985 608.646 174.978 C 610.23 176.972 612.469 177.968 615.363 177.968 Z M 663.614 187.389 C 659.354 187.389 655.614 186.529 652.391 184.809 C 649.169 183.089 646.684 180.659 644.936 177.518 C 643.189 174.378 642.315 170.678 642.315 166.418 C 642.315 162.158 643.189 158.458 644.936 155.318 C 646.684 152.178 649.169 149.761 652.391 148.068 C 655.613 146.375 659.354 145.528 663.614 145.528 C 667.874 145.528 671.615 146.375 674.837 148.068 C 678.059 149.761 680.544 152.178 682.292 155.318 C 684.04 158.458 684.913 162.158 684.913 166.418 C 684.913 170.678 684.04 174.378 682.292 177.518 C 680.544 180.658 678.059 183.088 674.837 184.808 C 671.615 186.529 667.874 187.389 663.614 187.389 L 663.614 187.389 Z M 663.614 177.969 C 669.622 177.969 672.625 174.119 672.625 166.418 C 672.625 162.54 671.847 159.646 670.291 157.734 C 668.734 155.823 666.509 154.867 663.614 154.867 C 657.607 154.867 654.603 158.717 654.603 166.417 C 654.603 174.118 657.607 177.969 663.614 177.969 L 663.614 177.969 Z M 709.735 187.389 C 705.475 187.389 701.735 186.529 698.512 184.809 C 695.29 183.089 692.805 180.659 691.057 177.518 C 689.31 174.378 688.436 170.678 688.436 166.418 C 688.436 162.158 689.31 158.458 691.057 155.318 C 692.805 152.178 695.29 149.761 698.512 148.068 C 701.734 146.375 705.475 145.528 709.735 145.528 C 713.995 145.528 717.735 146.375 720.958 148.068 C 724.18 149.761 726.665 152.178 728.413 155.318 C 730.16 158.458 731.034 162.158 731.034 166.418 C 731.034 170.678 730.16 174.378 728.413 177.518 C 726.665 180.658 724.18 183.088 720.958 184.808 C 717.736 186.529 713.995 187.389 709.735 187.389 L 709.735 187.389 Z M 709.735 177.969 C 715.743 177.969 718.746 174.119 718.746 166.418 C 718.746 162.54 717.968 159.646 716.412 157.734 C 714.855 155.823 712.63 154.867 709.735 154.867 C 703.728 154.867 700.724 158.717 700.724 166.417 C 700.724 174.118 703.728 177.969 709.735 177.969 L 709.735 177.969 Z M 779.961 186.734 L 764.806 186.734 L 749.405 168.794 L 749.405 186.734 L 737.035 186.734 L 737.035 128.98 L 749.405 128.98 L 749.405 163.714 L 764.232 146.594 L 778.978 146.594 L 762.102 165.762 L 779.961 186.734 Z"
    style="stroke-width: 1; fill: rgba(255, 255, 255, 0.9);" />
  <path
    d="M 271.137 200.772 L 267.965 116.249 C 267.861 113.458 270.001 111.093 272.788 110.918 L 344.681 106.424 C 347.646 106.239 350.152 108.593 350.151 111.563 L 350.151 203.666 C 350.152 206.601 347.703 208.942 344.771 208.809 L 276.051 205.722 C 273.375 205.602 271.238 203.45 271.137 200.772 Z"
    fill="#ff4785" style="stroke-width: 1;" />
  <path fill="#fff"
    d="M 328.652 119.001 L 329.143 107.19 L 339.016 106.414 L 339.441 118.594 C 339.462 119.185 338.834 119.576 338.313 119.298 C 338.273 119.277 338.235 119.252 338.199 119.224 L 334.391 116.224 L 329.883 119.644 C 329.412 120.001 328.731 119.714 328.658 119.127 C 328.653 119.086 328.651 119.043 328.652 119.001 Z M 316.025 145.01 C 316.025 147.013 329.517 146.053 331.329 144.646 C 331.329 131.006 324.009 123.838 310.607 123.838 C 297.205 123.838 289.696 131.118 289.696 142.036 C 289.696 161.053 315.36 161.417 315.36 171.79 C 315.36 174.702 313.934 176.43 310.797 176.43 C 306.71 176.43 305.094 174.343 305.284 167.246 C 305.284 165.706 289.696 165.226 289.221 167.246 C 288.011 184.445 298.726 189.406 310.988 189.406 C 322.869 189.406 332.184 183.073 332.184 171.608 C 332.184 151.226 306.14 151.772 306.14 141.672 C 306.14 137.578 309.182 137.032 310.988 137.032 C 312.888 137.032 316.31 137.367 316.025 145.01 L 316.025 145.01 Z"
    mask="url(#b)" style="stroke-width: 1;" />
</svg>